<svg width="286" height="116" viewBox="0 0 286 116" fill="none" xmlns="http://www.w3.org/2000/svg">
<path d="M79.93 80.63C75.6833 80.63 72.6733 78.7167 70.9 74.89C69.1733 71.0633 68.31 65.1367 68.31 57.11C68.31 49.1767 69.1967 43.32 70.97 39.54C72.79 35.7133 75.6833 33.8 79.65 33.8C81.1433 33.8 82.4033 33.9867 83.43 34.36C84.4567 34.7333 85.39 35.2233 86.23 35.83L85.39 39.33C84.3167 38.8167 83.4067 38.4433 82.66 38.21C81.9133 37.9767 81.0033 37.86 79.93 37.86C78.95 37.86 78.04 38.07 77.2 38.49C76.36 38.8633 75.6367 39.5867 75.03 40.66C74.4233 41.7333 73.9333 43.2267 73.56 45.14C73.2333 47.0067 73.07 49.4333 73.07 52.42V61.38C73.07 64.6 73.2333 67.2133 73.56 69.22C73.8867 71.2267 74.33 72.8133 74.89 73.98C75.4967 75.1 76.22 75.87 77.06 76.29C77.9 76.6633 78.8333 76.85 79.86 76.85C81.2133 76.85 82.31 76.6867 83.15 76.36C83.99 76.0333 84.8767 75.6133 85.81 75.1L86.86 78.46C86.0667 79.02 85.0867 79.5333 83.92 80C82.8 80.42 81.47 80.63 79.93 80.63ZM104.154 80.63C100.328 80.63 97.5278 78.74 95.7545 74.96C93.9812 71.18 93.0945 65.23 93.0945 57.11C93.0945 49.13 94.0045 43.25 95.8245 39.47C97.6445 35.69 100.444 33.8 104.224 33.8C107.958 33.8 110.734 35.6667 112.554 39.4C114.374 43.1333 115.284 48.99 115.284 56.97C115.284 61.2633 115.074 64.9033 114.654 67.89C114.234 70.8767 113.558 73.3267 112.624 75.24C111.738 77.1067 110.594 78.4833 109.194 79.37C107.794 80.21 106.114 80.63 104.154 80.63ZM104.224 77.06C105.158 77.06 105.998 76.8267 106.744 76.36C107.538 75.8933 108.214 75.0767 108.774 73.91C109.334 72.6967 109.754 71.0633 110.034 69.01C110.361 66.9567 110.524 64.3433 110.524 61.17V52.07C110.524 49.27 110.384 46.96 110.104 45.14C109.824 43.2733 109.404 41.8033 108.844 40.73C108.284 39.61 107.608 38.84 106.814 38.42C106.068 37.9533 105.204 37.72 104.224 37.72C103.244 37.72 102.358 37.9767 101.564 38.49C100.771 38.9567 100.094 39.75 99.5345 40.87C98.9745 41.99 98.5312 43.4833 98.2045 45.35C97.9245 47.2167 97.7845 49.55 97.7845 52.35V61.38C97.7845 64.5533 97.9245 67.1667 98.2045 69.22C98.5312 71.2267 98.9745 72.8133 99.5345 73.98C100.094 75.1467 100.771 75.9633 101.564 76.43C102.358 76.85 103.244 77.06 104.224 77.06ZM124.696 34.43H140.446V38.42H129.316V56.06H138.976V59.84H129.316V80H124.696V34.43ZM149.428 34.43H165.178V38.42H154.048V56.06H163.708V59.84H154.048V80H149.428V34.43ZM174.161 34.43H189.701V38.42H178.711V54.73H188.301V58.58H178.711V76.08H190.401V80H174.161V34.43ZM199.645 34.43H215.185V38.42H204.195V54.73H213.785V58.58H204.195V76.08H215.885V80H199.645V34.43Z" fill="white"/>
<rect x="1" y="1" width="284" height="114" stroke="white" stroke-width="2"/>
</svg>
