<?xml version="1.0" encoding="utf-8"?>
<!-- Generator: Adobe Illustrator 25.4.8, SVG Export Plug-In . SVG Version: 6.00 Build 0)  -->
<svg version="1.1" id="Layer_1" xmlns="http://www.w3.org/2000/svg" xmlns:xlink="http://www.w3.org/1999/xlink" x="0px" y="0px"
	 viewBox="0 0 500 500" style="enable-background:new 0 0 500 500;" xml:space="preserve">
<style type="text/css">
	.st0{fill:#FFFFFF;}
</style>
<g>
	<path class="st0" d="M119.86,296.76l-21.77,21.13v-24.46l21.77-21.57V296.76z M151.9,253.47l-21.77-21.57v24.91l21.77,21.13V253.47
		z M130.13,296.76l21.77,21.13v-24.46l-21.77-21.57V296.76z M119.86,231.9l-21.77,21.57v24.46l21.77-21.13V231.9z M373.47,296.76
		l21.77,21.13v-24.46l-21.77-21.57V296.76z M341.43,277.94l21.77-21.13V231.9l-21.77,21.57V277.94z M363.2,271.85l-21.77,21.57
		v24.46l21.77-21.13V271.85z M373.47,231.9v24.91l21.77,21.13v-24.46L373.47,231.9z M321.16,307.79H172.83v8.48h148.33V307.79z
		 M99.47,331.44h35.83c5.1,0,8.73,0.13,10.87,0.38c2.14,0.25,4.13,0.79,5.95,1.61c6.65,3.01,9.98,10.67,9.98,22.97
		c0,6.74-0.91,11.85-2.73,15.31c-2.37,4.42-6.02,7.23-10.94,8.41c-1.73,0.41-6.56,0.66-14.49,0.75h-23.59v30.56H99.47V331.44z
		 M110.34,371.16h21.88c6.7,0,11.21-0.41,13.54-1.23c2.46-0.91,4.08-2.83,4.85-5.74c0.41-1.46,0.62-3.65,0.62-6.56
		c0-5.51-0.34-9.37-1.03-11.55c-0.78-2.37-2.55-3.85-5.33-4.44c-1.19-0.27-4.47-0.43-9.85-0.48h-24.68V371.16z M230.4,341.15v-9.71
		h-54.29v79.99h54.29v-9.71h-43.42v-26.87h41.71v-9.5h-41.71v-24.2H230.4z M299.18,411.43v-18.87c0-4.92-1.12-8.3-3.35-10.12
		c-2.32-1.69-5.79-2.48-10.39-2.39h-27.62v31.38h-10.87v-79.99h40.34c7.11,0,12.51,1.21,16.2,3.62c3.24,2.1,5.45,5.29,6.63,9.57
		c0.68,2.55,1.03,5.9,1.03,10.05c0,6.84-0.89,11.81-2.67,14.9c-1.87,3.37-5.29,5.29-10.26,5.74c7.84,0.5,11.78,5.56,11.83,15.18
		v20.92H299.18z M300.27,357.83c0-7.07-0.64-11.51-1.91-13.33c-1.6-2.23-5.26-3.35-11.01-3.35h-29.54v29.19h26.53
		c5.42,0,9.34-0.73,11.76-2.19C298.88,366.47,300.27,363.03,300.27,357.83 M331.65,411.43H320.1l30.36-79.99h13.81l30.97,79.99
		h-11.49l-6.36-16.55h-39.45L331.65,411.43z M341.43,385.72h32.41l-16.34-42.73L341.43,385.72z M246.67,173.89l11.67-11.17
		c-4.87-5.55-8.75-11.97-11.64-19.24l-10.79,18.76L246.67,173.89z M264.3,133.29c-2.89-4.68-8.44-8.39-12.62-8.73
		c1.45,12.06,5.95,22.72,12.83,30.45C268.68,148.46,268.65,140.34,264.3,133.29 M251.62,236.97c6.48-1.48,11.03-5.25,14.17-11.69
		c2.97-6.09,2.37-13.6-1.35-19.05C257.2,215.12,252.99,225.22,251.62,236.97 M303.3,175.71c-0.19-17.52-12.67-36.11-30.01-45.36
		c5.44,10.63,4.82,21.33-1.85,31.89l0,0c0.36,0.3,0.72,0.58,1.08,0.86C281.82,170.48,291.93,174.63,303.3,175.71 M281.94,271.47
		v-14.89l-11.51,14.89H281.94z M395.24,172.43v47.78h-61.62v70H160.51v-70H98.09v-47.78c0-82.05,66.52-148.57,148.57-148.57h0
		C328.72,23.85,395.24,90.37,395.24,172.43 M250.05,56.71c28.94,0.86,55.25,12.22,75.24,30.41l23.93-11.01
		c-25.03-26.35-60.09-43.07-99.07-44.04L250.05,56.71z M297.09,76.55l-16.16,17.94c12.5,5.63,23.4,14.21,31.81,24.84l28.7-0.4
		C330.98,100.95,315.57,86.2,297.09,76.55 M202.67,73.51l17.38,18.02c8.58-2.91,17.77-4.49,27.33-4.49c9.03,0,17.72,1.41,25.89,4.02
		l18.04-17.71c-13.51-5.92-28.44-9.21-44.13-9.21C231.34,64.13,216.28,67.48,202.67,73.51 M196.36,76.55
		c-18.49,9.65-33.89,24.4-44.34,42.38l28.7,0.4c8.41-10.63,19.3-19.2,31.81-24.84L196.36,76.55z M143.98,76.1l23.93,11.01
		c19.99-18.18,46.3-29.55,75.24-30.41l-0.1-24.64C204.07,33.03,169.01,49.75,143.98,76.1 M129.68,175.26l-24.5,10.27v15.36
		c0,6.77,5.49,12.25,12.25,12.25c6.77,0,12.25-5.49,12.25-12.25V175.26z M129.73,167.75c1.48-29.21,13.66-55.6,32.71-75.32
		l-23.12-11.16c-21.34,24.79-34.24,57.04-34.24,92.31v4.12L129.73,167.75z M162.43,171.99c0-16.65,4.79-32.18,13.07-45.29
		l-27.46-0.26c-6.95,14.43-10.85,30.6-10.85,47.69v26.4c0,6.97,5.65,12.62,12.62,12.62c6.97,0,12.62-5.65,12.62-12.62V171.99z
		 M212.8,253.47h-4.76l-8.08,8.08l2.62,2.62l6.6-6.61v23.25h3.61V253.47z M241.82,272.78c0-1.04-0.08-1.99-0.23-2.83
		c-0.18-0.95-0.64-1.74-1.38-2.37c-0.43-0.37-1.1-0.68-2.03-0.94c1.21-0.45,2-0.94,2.37-1.47c0.65-0.95,0.97-2.51,0.97-4.67
		c0-1.47-0.14-2.66-0.41-3.57c-0.52-1.67-1.67-2.75-3.45-3.24c-1.09-0.31-3.1-0.46-6.03-0.46c-1.55,0-2.97,0.06-4.26,0.16
		c-1.75,0.14-3.11,0.62-4.07,1.45c-1.12,0.95-1.68,2.81-1.68,5.57c0,2.58,0.46,4.33,1.38,5.25c0.35,0.34,1,0.66,1.93,0.97
		c-1.29,0.4-2.21,0.97-2.76,1.73c-0.6,0.81-0.9,2.35-0.9,4.6c0,2.15,0.18,3.68,0.55,4.6c0.58,1.47,1.66,2.45,3.25,2.92
		c1.41,0.41,3.69,0.62,6.84,0.62c2.18,0,3.91-0.14,5.2-0.42c1.29-0.28,2.27-0.72,2.95-1.33c0.66-0.58,1.12-1.36,1.38-2.35
		C241.69,276.01,241.82,274.61,241.82,272.78 M266.22,253.47h-20.09v3.17h16.73l-14.02,24.17h4.33l13.05-23.11V253.47z
		 M289.56,271.47h-4.01v-18h-5.09l-13.49,17.19v3.98h14.96v6.17h3.61v-6.17h4.01V271.47z M324.79,173.04
		c0-41.73-32.86-75.79-74.12-77.72l0,18.8c-1.35-0.08-2.71-0.14-4.07-0.14h-0.08c-1.13,0-2.26,0.03-3.38,0.09V95.32
		c-41.26,1.92-74.12,35.98-74.12,77.72V282.6l19.1-12.45v-57.88c11.24,20.71,33.14,34.84,58.32,34.95c0.1,0,0.2,0,0.3,0
		c17.59,0,34.2-6.88,46.78-19.39c4.95-4.92,9.02-10.48,12.16-16.47v59.22l19.1,11.9V173.04z M356.26,174.13
		c0-17.08-3.9-33.26-10.85-47.69l-27.46,0.26c8.28,13.11,13.07,28.64,13.07,45.29v28.54c0,6.97,5.65,12.62,12.62,12.62
		c6.97,0,12.62-5.65,12.62-12.62V174.13z M388.01,185.54l-24.5-10.27v25.63c0,6.77,5.49,12.25,12.25,12.25
		c6.77,0,12.25-5.49,12.25-12.25V185.54z M388.12,173.58c0-35.27-12.9-67.53-34.24-92.31l-23.12,11.16
		c19.04,19.72,31.22,46.11,32.71,75.32l24.65,9.96V173.58z M235.36,268.48c-0.75-0.11-2.14-0.16-4.17-0.16
		c-2.1,0-3.56,0.12-4.37,0.34c-0.97,0.29-1.58,0.83-1.84,1.61c-0.15,0.43-0.23,1.25-0.23,2.46c0,1.87,0.12,3.06,0.34,3.57
		c0.34,0.7,1,1.15,2,1.33c0.81,0.15,2.39,0.23,4.74,0.23c3.04,0,4.91-0.33,5.62-0.99c0.6-0.54,0.9-1.93,0.9-4.19
		c0-1.66-0.28-2.78-0.85-3.36C237.1,268.9,236.39,268.61,235.36,268.48 M227.23,264.86c0.84,0.19,2.62,0.28,5.32,0.28
		c2.5,0,4.07-0.31,4.7-0.92c0.54-0.52,0.81-1.72,0.81-3.59c0-1.89-0.29-3.05-0.87-3.5c-0.58-0.46-2.45-0.69-5.59-0.69
		c-1.86,0-3.19,0.06-4,0.16c-0.81,0.11-1.39,0.31-1.73,0.6c-0.49,0.42-0.74,1.5-0.74,3.24c0,1.61,0.11,2.65,0.32,3.13
		C225.76,264.25,226.36,264.68,227.23,264.86 M246.38,186.86l-9.68,11.62l-8.5-8.08l11.74-9.36c-1.3-1.32-2.57-2.61-3.81-3.86
		c-3.81-3.86-7.36-7.45-10.89-11.07c-6.81-6.98-9.68-14.7-8.52-22.95c0.62-4.4,1.96-8.57,3.27-12.61c0.07-0.23,0.15-0.45,0.22-0.67
		c-19.44,9.39-30.35,31.88-30.14,45.83c10.91-1,20.81-4.97,30.19-12.12l0.68-0.64l7.05,7.89l-18.56,9.81
		c17.43,7.18,30.16,19.91,37.17,37.15l10.6-18.56L246.38,186.86z M189.85,185.75c1.24,20.18,15.68,38.45,30.21,45.37
		c-5.54-10.48-4.9-20.79,1.93-31.94C211.77,190.84,201.22,186.44,189.85,185.75 M243.4,121.74c-8.71,1.58-14.98,6.32-18.19,14.42
		c-3.06,7.73-2,15.21,3.07,22.05C236.21,151.66,244.53,133.09,243.4,121.74 M225.48,225.67c3.32,7.81,9.41,12.48,18.37,13.81
		c-0.71-14.23-6.03-26.03-15.32-36.83C223.06,210.15,222.13,217.8,225.48,225.67 M271.81,162.54l-0.36-0.29l-6.21,7.7l-0.17,0.17
		l-11.49,10.3c1.22,1.24,2.43,2.45,3.61,3.65c3.76,3.79,7.3,7.37,10.81,11.06c5.72,6.03,8.61,12.81,8.85,20.72
		c0.16,5.37-0.94,10.27-3.42,15.03c17.16-9.24,31.46-30.4,29.8-45.18c-10.18,0.62-19.83,4.44-30.19,11.92l-0.7,0.49l-7.11-7.61
		l18.62-9.86c-8-3.34-11.66-5.25-17.12-10.33l5.81-7.2L271.81,162.54z"/>
	<g>
		<path class="st0" d="M105.65,467.4c-2.85,0-4.87-1.29-6.04-3.86c-1.18-2.57-1.76-6.55-1.76-11.95c0-5.33,0.6-9.27,1.81-11.83
			c1.21-2.55,3.14-3.83,5.81-3.83c1,0,1.85,0.12,2.54,0.38c0.69,0.25,1.32,0.58,1.88,0.99l-0.56,2.35c-0.72-0.34-1.33-0.6-1.83-0.75
			c-0.5-0.16-1.11-0.23-1.83-0.23c-0.66,0-1.27,0.13-1.83,0.4c-0.56,0.27-1.05,0.76-1.46,1.48c-0.41,0.72-0.73,1.72-0.96,2.99
			s-0.35,2.91-0.35,4.92v6.03c0,2.17,0.11,3.93,0.33,5.28c0.22,1.35,0.52,2.41,0.92,3.18c0.39,0.77,0.87,1.29,1.43,1.55
			c0.56,0.27,1.19,0.4,1.88,0.4c0.91,0,1.65-0.11,2.21-0.33c0.56-0.22,1.16-0.5,1.79-0.85l0.71,2.24c-0.53,0.37-1.18,0.7-1.95,0.99
			C107.59,467.25,106.68,467.4,105.65,467.4z"/>
		<path class="st0" d="M128.08,467.4c-2.57,0-4.45-1.27-5.64-3.81c-1.19-2.54-1.79-6.54-1.79-11.99c0-5.36,0.61-9.31,1.83-11.85
			c1.22-2.54,3.1-3.81,5.64-3.81c2.51,0,4.37,1.25,5.6,3.76c1.22,2.51,1.83,6.44,1.83,11.8c0,2.89-0.14,5.33-0.42,7.34
			c-0.28,2.01-0.73,3.64-1.34,4.91s-1.39,2.2-2.33,2.78C130.53,467.11,129.4,467.4,128.08,467.4z M128.13,465
			c0.63,0,1.2-0.16,1.72-0.47c0.52-0.31,0.96-0.87,1.34-1.67c0.38-0.8,0.67-1.89,0.87-3.27c0.2-1.38,0.31-3.13,0.31-5.27v-6.11
			c0-1.88-0.09-3.44-0.28-4.68c-0.19-1.24-0.47-2.23-0.85-2.96c-0.38-0.74-0.82-1.25-1.34-1.55c-0.52-0.3-1.1-0.45-1.76-0.45
			c-0.66,0-1.25,0.17-1.79,0.49c-0.53,0.33-0.99,0.87-1.36,1.62c-0.38,0.75-0.67,1.76-0.87,3.01c-0.2,1.25-0.31,2.82-0.31,4.7v6.07
			c0,2.13,0.1,3.88,0.31,5.24c0.2,1.36,0.49,2.44,0.87,3.22c0.38,0.78,0.83,1.32,1.36,1.62C126.87,464.85,127.47,465,128.13,465z"/>
		<path class="st0" d="M148.07,436.36h10.58v2.68h-7.48v11.9h6.49v2.49h-6.49v13.54h-3.1V436.36z"/>
		<path class="st0" d="M170.88,436.36h10.58v2.68h-7.48v11.9h6.49v2.49h-6.49v13.54h-3.1V436.36z"/>
		<path class="st0" d="M193.69,436.36h10.44v2.68h-7.38V450h6.44v2.59h-6.44v11.76h7.85v2.63h-10.91V436.36z"/>
		<path class="st0" d="M216.96,436.36h10.44v2.68h-7.38V450h6.44v2.59h-6.44v11.76h7.85v2.63h-10.91V436.36z"/>
		<path class="st0" d="M266.07,458.37c0.25-1.13,0.47-2.42,0.66-3.88c0.19-1.46,0.36-3.11,0.52-4.96h2.49l-0.38,3.39
			c-0.16,1.6-0.38,3.14-0.68,4.63s-0.67,2.81-1.1,3.97l2.63,5.46h-3.06l-1.68-3.62l-1.13,2.77c-0.31,0.25-0.74,0.53-1.29,0.82
			c-0.55,0.3-1.29,0.45-2.23,0.45c-2,0-3.59-0.73-4.76-2.19s-1.76-3.61-1.76-6.47c0-1.47,0.11-2.73,0.33-3.76s0.53-1.93,0.92-2.68
			c0.39-0.75,0.85-1.38,1.36-1.88c0.52-0.5,1.07-0.96,1.67-1.36c-0.75-1.57-1.27-2.95-1.55-4.14c-0.28-1.19-0.42-2.41-0.42-3.67
			c0-2.23,0.48-3.89,1.45-5.01c0.97-1.11,2.17-1.67,3.6-1.67c1.31,0,2.43,0.5,3.35,1.5c0.92,1,1.38,2.71,1.38,5.13
			c0,1.41-0.12,2.52-0.37,3.32c-0.25,0.8-0.56,1.53-0.94,2.19l-3.39,2.26L266.07,458.37z M259.38,450.71
			c-0.72,0.72-1.22,1.59-1.5,2.61c-0.28,1.02-0.42,2.3-0.42,3.83v2.35c0,2.07,0.31,3.52,0.94,4.35c0.63,0.83,1.52,1.25,2.68,1.25
			c0.75,0,1.44-0.23,2.07-0.68c0.63-0.45,1.21-1.23,1.74-2.33L259.38,450.71z M261.14,447.98c0.47-0.41,0.88-0.81,1.21-1.2
			c0.33-0.39,0.61-0.84,0.83-1.34c0.22-0.5,0.38-1.08,0.48-1.74c0.09-0.66,0.14-1.43,0.14-2.3c0-1.72-0.18-2.88-0.54-3.46
			c-0.36-0.58-0.9-0.87-1.62-0.87c-0.66,0-1.18,0.31-1.58,0.92c-0.39,0.61-0.59,1.69-0.59,3.22c0,1.1,0.12,2.16,0.37,3.17
			S260.52,446.6,261.14,447.98z"/>
		<path class="st0" d="M296.11,436.36h3.01l2.21,17.64l0.75,11.43l0.85-11.33l2.35-17.73h3.25l2.26,17.73l0.8,11.33l0.8-11.43
			l2.35-17.64h2.73l-4.33,30.62h-3.15l-2.4-17.4l-0.75-11.47l-0.8,11.47l-2.49,17.4h-3.2L296.11,436.36z"/>
		<path class="st0" d="M335.61,467.4c-2.57,0-4.45-1.27-5.64-3.81c-1.19-2.54-1.79-6.54-1.79-11.99c0-5.36,0.61-9.31,1.83-11.85
			c1.22-2.54,3.1-3.81,5.64-3.81c2.51,0,4.37,1.25,5.6,3.76c1.22,2.51,1.83,6.44,1.83,11.8c0,2.89-0.14,5.33-0.42,7.34
			c-0.28,2.01-0.73,3.64-1.34,4.91s-1.39,2.2-2.33,2.78C338.06,467.11,336.93,467.4,335.61,467.4z M335.66,465
			c0.63,0,1.2-0.16,1.72-0.47s0.96-0.87,1.34-1.67c0.38-0.8,0.67-1.89,0.87-3.27c0.2-1.38,0.31-3.13,0.31-5.27v-6.11
			c0-1.88-0.09-3.44-0.28-4.68c-0.19-1.24-0.47-2.23-0.85-2.96c-0.38-0.74-0.82-1.25-1.34-1.55s-1.11-0.45-1.76-0.45
			s-1.25,0.17-1.79,0.49s-0.99,0.87-1.36,1.62c-0.38,0.75-0.67,1.76-0.87,3.01c-0.2,1.25-0.31,2.82-0.31,4.7v6.07
			c0,2.13,0.1,3.88,0.31,5.24c0.2,1.36,0.49,2.44,0.87,3.22c0.38,0.78,0.83,1.32,1.36,1.62S335,465,335.66,465z"/>
		<path class="st0" d="M365.15,455.41l3.62,11.57h-3.15l-3.9-12.89h-3.01v12.89h-3.1v-30.62h5.88c2.23,0,3.94,0.72,5.15,2.16
			c1.21,1.44,1.81,3.73,1.81,6.87c0,1.13-0.09,2.17-0.26,3.13c-0.17,0.96-0.46,1.8-0.85,2.52c-0.39,0.72-0.92,1.33-1.58,1.81
			c-0.66,0.49-1.47,0.81-2.45,0.96L365.15,455.41z M361.24,451.93c1.41,0,2.41-0.38,3.01-1.15c0.6-0.77,0.89-2.16,0.89-4.16v-2.54
			c0-1.94-0.31-3.28-0.92-4c-0.61-0.72-1.62-1.08-3.03-1.08h-2.54v12.93H361.24z"/>
		<path class="st0" d="M391.2,436.36h3.15l-7.15,14.39l2.21,2.07l5.03,14.16h-3.25l-5.27-15.05l-1.74,3.48v11.57h-3.1v-30.62h3.1
			v10.21l-0.66,5.93L391.2,436.36z"/>
	</g>
</g>
</svg>
