<svg width="286" height="116" viewBox="0 0 286 116" fill="none" xmlns="http://www.w3.org/2000/svg">
<rect x="1" y="1" width="284" height="114" stroke="white" stroke-width="2"/>
<path d="M83.75 35.43H88.23L91.52 61.68L92.64 78.69L93.9 61.82L97.4 35.43H102.23L105.59 61.82L106.78 78.69L107.97 61.68L111.47 35.43H115.53L109.09 81H104.4L100.83 55.1L99.71 38.02L98.52 55.1L94.81 81H90.05L83.75 35.43ZM132.664 81.63C128.838 81.63 126.038 79.74 124.264 75.96C122.491 72.18 121.604 66.23 121.604 58.11C121.604 50.13 122.514 44.25 124.334 40.47C126.154 36.69 128.954 34.8 132.734 34.8C136.468 34.8 139.244 36.6667 141.064 40.4C142.884 44.1333 143.794 49.99 143.794 57.97C143.794 62.2633 143.584 65.9033 143.164 68.89C142.744 71.8767 142.068 74.3267 141.134 76.24C140.248 78.1067 139.104 79.4833 137.704 80.37C136.304 81.21 134.624 81.63 132.664 81.63ZM132.734 78.06C133.668 78.06 134.508 77.8267 135.254 77.36C136.048 76.8933 136.724 76.0767 137.284 74.91C137.844 73.6967 138.264 72.0633 138.544 70.01C138.871 67.9567 139.034 65.3433 139.034 62.17V53.07C139.034 50.27 138.894 47.96 138.614 46.14C138.334 44.2733 137.914 42.8033 137.354 41.73C136.794 40.61 136.118 39.84 135.324 39.42C134.578 38.9533 133.714 38.72 132.734 38.72C131.754 38.72 130.868 38.9767 130.074 39.49C129.281 39.9567 128.604 40.75 128.044 41.87C127.484 42.99 127.041 44.4833 126.714 46.35C126.434 48.2167 126.294 50.55 126.294 53.35V62.38C126.294 65.5533 126.434 68.1667 126.714 70.22C127.041 72.2267 127.484 73.8133 128.044 74.98C128.604 76.1467 129.281 76.9633 130.074 77.43C130.868 77.85 131.754 78.06 132.734 78.06ZM166.716 63.78L172.106 81H167.416L161.606 61.82H157.126V81H152.506V35.43H161.256C164.569 35.43 167.112 36.5033 168.886 38.65C170.706 40.7967 171.616 44.2033 171.616 48.87C171.616 50.55 171.476 52.1133 171.196 53.56C170.962 54.96 170.542 56.1967 169.936 57.27C169.376 58.3433 168.606 59.2533 167.626 60C166.646 60.7 165.432 61.1667 163.986 61.4L166.716 63.78ZM160.906 58.6C163.006 58.6 164.499 58.04 165.386 56.92C166.272 55.7533 166.716 53.6767 166.716 50.69V46.91C166.716 44.0167 166.249 42.0333 165.316 40.96C164.429 39.8867 162.936 39.35 160.836 39.35H157.056V58.6H160.906ZM195.621 35.43H200.311L189.671 56.85L192.961 59.93L200.451 81H195.621L187.781 58.6L185.191 63.78V81H180.571V35.43H185.191V50.62L184.211 59.44L195.621 35.43Z" fill="white"/>
</svg>
